HIERARCHY
ROOT hip
{
	OFFSET 0.000000 0.000000 0.000000 
	CHANNELS 6 Xposition Yposition Zposition Xrotation Zrotation Yrotation
	JOINT abdomen
	{
		OFFSET 0.000000 3.402643 0.000000 
		CHANNELS 3 Xrotation Zrotation Yrotation
		JOINT chest
		{
			OFFSET 0.000000 8.438565 -0.680529 
			CHANNELS 3 Xrotation Zrotation Yrotation
			JOINT neck
			{
				OFFSET 0.000000 10.207942 -0.272212 
				CHANNELS 3 Xrotation Zrotation Yrotation
				JOINT head
				{
					OFFSET 0.000000 3.130431 0.000000 
					CHANNELS 3 Xrotation Zrotation Yrotation
					End Site
					{
						OFFSET 0.000000 3.130435 0.000000 
					}
				}
			}
			JOINT lCollar
			{
				OFFSET 3.470700 6.669187 -0.816635 
				CHANNELS 3 Yrotation Zrotation Xrotation
				JOINT lShldr
				{
					OFFSET 3.198488 0.000000 0.000000 
					CHANNELS 3 Zrotation Yrotation Xrotation
					JOINT lForeArm
					{
						OFFSET 10.139888 0.000000 0.000000 
						CHANNELS 3 Yrotation Zrotation Xrotation
						JOINT lHand
						{
							OFFSET 8.370511 0.000000 0.000000 
							CHANNELS 3 Zrotation Yrotation Xrotation
							End Site
							{
								OFFSET 4.083176 0.000000 0.000000 
							}
						}
					}
				}
			}
			JOINT rCollar
			{
				OFFSET -3.470700 6.669187 -0.816635 
				CHANNELS 3 Yrotation Zrotation Xrotation
				JOINT rShldr
				{
					OFFSET -3.198488 0.000000 0.000000 
					CHANNELS 3 Zrotation Yrotation Xrotation
					JOINT rForeArm
					{
						OFFSET -10.139888 0.000000 0.000000 
						CHANNELS 3 Yrotation Zrotation Xrotation
						JOINT rHand
						{
							OFFSET -8.370511 0.000000 0.000000 
							CHANNELS 3 Zrotation Yrotation Xrotation
							End Site
							{
								OFFSET -4.083176 0.000000 0.000000 
							}
						}
					}
				}
			}
		}
	}
	JOINT lThigh
	{
		OFFSET 5.308129 -1.633274 1.361059 
		CHANNELS 3 Xrotation Zrotation Yrotation
		JOINT lShin
		{
			OFFSET -2.041588 -20.007561 0.000000 
			CHANNELS 3 Xrotation Zrotation Yrotation
			JOINT lFoot
			{
				OFFSET 0.000000 -19.190928 -1.224953 
				CHANNELS 3 Xrotation Yrotation Zrotation
				End Site
				{
					OFFSET 0.000000 -2.449906 4.627600 
				}
			}
		}
	}
	JOINT rThigh
	{
		OFFSET -5.308129 -1.633274 1.361059 
		CHANNELS 3 Xrotation Zrotation Yrotation
		JOINT rShin
		{
			OFFSET 2.041588 -20.007561 0.000000 
			CHANNELS 3 Xrotation Zrotation Yrotation
			JOINT rFoot
			{
				OFFSET 0.000000 -19.190928 -1.224953 
				CHANNELS 3 Xrotation Yrotation Zrotation
				End Site
				{
					OFFSET 0.000000 -2.449906 4.627600 
				}
			}
		}
	}
}
MOTION
Frames: 16
Frame Time: 0.033333
-6.090022 49.609035 1.891087 -12.269309 8.610453 58.985310 32.841259 7.044483 -4.768403 -20.839844 0.000000 0.000000 12.861441 4.551663 -6.743227 -2.520860 -1.255023 0.218345 -4.754609 -0.109182 -0.002653 -66.662277 -3.946526 8.701788 -0.360686 -9.016011 40.986649 -6.435503 -9.088581 14.558418 4.754609 0.109182 -0.002672 77.061989 -21.358234 -14.750830 45.653008 4.842366 31.570921 20.808634 -13.013581 35.987083 -2.401742 13.596491 4.538735 54.076740 -0.334737 -7.765985 -33.085785 -7.780166 8.814489 11.804033 -15.819326 -25.374113 46.044449 20.177048 2.273220 -27.446215 22.409613 -7.250418 
-6.016917 49.638996 1.903782 -12.104616 8.405440 59.396507 32.696331 7.098539 -4.577720 -20.839844 0.000000 0.000000 10.038065 4.472289 -8.021755 -2.520860 -1.255023 0.218345 -4.754609 -0.109182 -0.002653 -70.507111 -4.046857 9.720059 -6.682712 -12.914923 42.424774 -2.335828 -8.898088 17.053696 4.754609 0.109182 -0.002672 81.795334 -19.106432 -12.555647 43.312634 5.292258 32.463081 19.293249 -9.817280 36.685291 -2.684723 13.402578 4.229895 53.992336 -0.111478 -7.827890 -33.006363 -7.612117 8.604284 11.580530 -15.673558 -25.178881 45.924961 20.092655 2.093539 -27.387760 22.027378 -6.764295 
-5.918925 49.667423 1.923084 -11.783902 8.252590 59.897099 32.483654 6.633826 -4.475837 -20.839844 0.000000 0.000000 7.659628 4.986658 -9.594804 -2.520860 -1.255023 0.218345 -4.754609 -0.109182 -0.002653 -72.607460 -3.913961 14.654670 -15.344033 -15.978119 42.176201 1.927683 -7.037035 8.966101 4.754609 0.109182 -0.002672 86.243904 -18.072172 -10.344588 43.916634 6.666059 31.089409 16.357880 -9.413683 33.058910 -2.997645 13.003916 3.794431 53.863670 0.036615 -7.788986 -32.914673 -7.437939 8.822308 11.169616 -15.575224 -24.818514 45.918591 19.835640 1.979845 -27.371277 21.414865 -6.223450 
-5.791499 49.695850 1.965214 -11.375881 8.139913 60.849915 32.424149 6.370480 -4.670766 -20.839844 0.000000 0.000000 5.574272 5.259465 -11.346818 -2.520860 -1.255023 0.218345 -4.754609 -0.109182 -0.002653 -73.610191 -3.562983 17.149965 -24.126789 -18.622131 39.631306 3.940992 -5.496407 4.051741 4.754609 0.109182 -0.002672 89.551620 -17.665134 -8.872606 45.846424 7.886345 30.865950 13.903030 -8.028976 32.171211 -3.388228 12.770162 3.541721 53.786297 0.134430 -7.980003 -32.725304 -7.787865 9.306824 11.052973 -15.536144 -24.841555 45.777355 19.886843 1.385270 -27.280733 20.651573 -6.068507 
-5.684382 49.713627 2.012440 -11.185288 8.030193 61.611584 32.323166 6.333216 -4.704097 -20.839844 0.000000 0.000000 3.636487 4.876543 -13.213018 -2.520860 -1.255023 0.218345 -4.754609 -0.109182 -0.002653 -73.124840 -3.322685 16.911047 -30.833290 -23.130255 37.482323 4.998541 -5.824010 4.370668 4.754609 0.109182 -0.002672 91.198708 -18.346430 -7.973506 48.342407 9.499160 32.420227 13.253496 -4.066482 34.013248 -3.582892 13.061551 3.760296 53.726170 0.063972 -8.339692 -32.572456 -8.398929 9.441106 10.709756 -15.232271 -24.382753 45.846004 19.701698 0.921354 -27.121231 19.603298 -5.624248 
-5.575221 49.701435 2.072361 -11.270808 7.912830 61.954021 32.598740 6.463252 -4.788445 -20.839844 0.000000 0.000000 1.626263 3.977203 -13.962451 -2.520860 -1.255023 0.218345 -4.754609 -0.109182 -0.002653 -71.880684 -3.197678 16.608412 -36.639729 -26.755489 34.946091 5.276382 -6.589995 4.020204 4.754609 0.109182 -0.002672 91.169991 -19.078154 -6.818720 50.775249 11.747090 34.681145 14.477140 0.489347 36.501087 -3.593645 14.003323 4.581886 53.892403 -0.287544 -8.806575 -32.308083 -9.405785 9.367595 10.145224 -14.745740 -23.500406 46.247757 19.302107 0.815827 -26.756142 18.531317 -5.114808 
-5.447794 49.614109 2.133778 -11.264695 8.047184 62.602753 33.109375 6.447767 -5.150102 -20.839844 0.000000 0.000000 -0.239825 3.569413 -14.860515 -2.520860 -1.255023 0.218345 -4.754609 -0.109182 -0.002653 -71.022789 -3.704047 16.420160 -39.747906 -28.337921 32.487015 4.765559 -6.860758 2.694038 4.754609 0.109182 -0.002672 91.012505 -19.409868 -6.148986 53.136719 13.203010 35.841587 16.353231 2.644215 38.259926 -3.720549 14.363832 4.814151 54.445518 -0.296202 -9.204557 -32.344006 -10.037051 9.454629 9.741995 -14.675014 -22.992439 47.269402 19.036808 0.904158 -26.310005 17.585176 -4.983598 
-5.373164 49.513592 2.170338 -11.163712 7.963666 63.287575 33.319145 6.229855 -5.285985 -20.839844 0.000000 0.000000 -1.644457 3.541673 -16.569723 -2.520860 -1.255023 0.218345 -4.754609 -0.109182 -0.002653 -70.749619 -4.879161 16.503067 -39.484047 -27.944265 31.188557 3.508171 -7.327857 0.998052 4.754609 0.109182 -0.002672 90.549545 -20.184828 -5.918912 56.040894 14.724655 35.249809 17.872210 2.088304 37.442326 -4.267464 14.207940 4.383636 55.047737 0.066022 -9.383556 -32.482117 -10.044762 9.485829 8.482610 -14.401826 -21.915749 48.784096 18.470837 0.848015 -25.736151 15.756328 -4.506314 
-5.330012 49.401905 2.172337 -10.763874 7.763096 63.695324 33.377476 5.625717 -5.039115 -20.839844 0.000000 0.000000 -2.796438 3.978512 -19.090088 -2.520860 -1.255023 0.218345 -4.754609 -0.109182 -0.002653 -70.712914 -6.137406 17.094194 -36.808796 -26.736786 31.591854 2.890813 -7.106531 -0.458217 4.754609 0.109182 -0.002672 89.868706 -20.819651 -5.981976 58.138023 15.655975 33.793026 18.201029 0.880324 35.397129 -5.046389 14.034554 4.237284 55.706615 0.064842 -9.548750 -32.156185 -10.277549 9.417327 6.520945 -14.724375 -21.009361 51.045815 17.785957 1.180293 -24.366388 13.891917 -3.591763 
-5.304118 49.182587 2.203327 -10.440773 7.454075 63.923706 33.678349 4.770811 -4.944751 -20.839844 0.000000 0.000000 -4.022645 4.964653 -21.062126 -2.520860 -1.255023 0.218345 -4.754609 -0.109182 -0.002653 -70.283493 -7.472965 17.694273 -32.385868 -24.517887 32.917278 2.749367 -6.418293 -1.799138 4.754609 0.109182 -0.002672 89.737877 -20.711241 -6.281296 58.907444 15.366837 31.880058 18.021151 -0.227390 33.037090 -6.092450 14.214452 4.291661 56.939468 0.065050 -9.788310 -32.212414 -10.583610 8.982781 4.228117 -15.606082 -20.558481 54.363041 17.303715 2.544039 -21.769381 13.053909 -1.642510 
-5.291422 48.869850 2.280491 -10.353926 7.110102 64.036835 33.912781 4.596838 -4.841660 -20.839844 0.000000 0.000000 -5.330529 5.346320 -22.283962 -2.520860 -1.255023 0.218345 -4.754609 -0.109182 -0.002653 -70.165878 -9.546781 19.514584 -26.078901 -21.630651 34.700943 3.138310 -5.924786 -4.928985 4.754609 0.109182 -0.002672 88.647957 -19.930088 -6.140493 57.394024 14.828662 30.831678 15.997683 -1.489407 30.894070 -7.117844 14.713451 4.423245 58.410526 0.200793 -10.111592 -33.030632 -10.997342 8.638264 1.375542 -16.579697 -20.003231 58.594437 16.722282 4.080438 -17.811575 12.461897 -0.564462 
-5.283305 48.525139 2.363728 -10.273057 7.015771 64.445847 34.653461 4.514519 -5.075768 -20.839844 0.000000 0.000000 -6.995667 5.215429 -23.424015 -2.520860 -1.255023 0.218345 -4.754609 -0.109182 -0.002653 -70.999550 -11.805000 20.078806 -18.188725 -17.827915 34.921825 2.130922 -5.588062 -7.392130 4.754609 0.109182 -0.002672 87.687546 -18.656565 -6.213411 55.365112 13.562301 29.704735 13.553645 -3.682499 29.022020 -7.889874 15.017875 4.434779 59.802608 0.414967 -10.385394 -34.114910 -11.432132 8.611513 -1.339482 -18.149639 -19.806057 62.942776 16.029821 5.953470 -12.280769 12.355577 2.067574 
-5.290934 48.222046 2.460728 -10.050676 6.741621 64.941078 35.440575 4.259884 -5.040655 -20.839844 0.000000 0.000000 -8.859626 4.835030 -24.691521 -2.520860 -1.255023 0.218345 -4.754609 -0.109182 -0.002653 -72.949211 -13.965765 13.499802 -8.292951 -13.533968 30.291790 -0.394383 -4.261589 0.138947 4.754609 0.109182 -0.002672 87.014030 -17.325989 -6.827528 52.808060 11.535560 28.378674 11.130922 -4.951999 27.768391 -8.739898 14.940248 4.027709 60.818142 0.806526 -10.354934 -35.263470 -11.494554 9.223189 -4.376074 -20.226561 -19.681005 66.982979 15.092197 8.253723 -5.630884 13.321446 6.367339 
-5.335093 47.915413 2.616562 -9.577013 6.144302 65.274712 35.950531 3.819025 -5.009474 -20.839844 0.000000 0.000000 -10.744584 4.875584 -25.653431 -2.520860 -1.255023 0.218345 -4.754609 -0.109182 -0.002653 -74.547401 -15.735284 14.429388 -1.360423 -7.249715 27.938078 -1.960809 -1.643297 -2.662700 4.754609 0.109182 -0.002672 86.163445 -16.342157 -7.427003 50.998173 10.071127 25.965076 8.660847 -6.790897 24.950964 -10.068206 14.608711 3.402097 61.859379 1.303603 -10.275144 -36.337635 -11.379403 9.759624 -8.193271 -22.375929 -19.090193 70.713966 13.749351 10.842784 0.700025 15.389593 10.032937 
-5.289912 47.639740 2.879547 -9.116182 5.602621 65.753357 36.519558 3.280677 -5.221560 -20.839844 0.000000 0.000000 -12.212893 5.023147 -26.668493 -2.520860 -1.255023 0.218345 -4.754609 -0.109182 -0.002653 -74.642769 -14.406602 14.468663 -0.917392 -2.494742 25.461975 -3.881083 0.202831 -7.212713 4.754609 0.109182 -0.002672 85.951141 -15.623877 -8.299804 49.523140 8.476300 23.099585 7.009453 -9.526714 21.914764 -11.229143 14.490206 2.924552 62.924889 1.772246 -10.307345 -37.220753 -11.256529 9.710934 -11.532930 -24.165464 -18.255285 73.517632 12.323975 13.908315 4.797678 18.871225 12.565195 
-5.166544 47.505203 3.223740 -8.897562 5.422634 66.320473 37.131523 3.268085 -5.543200 -20.839844 0.000000 0.000000 -13.208727 4.670608 -26.976286 -2.520860 -1.255023 0.218345 -4.754609 -0.109182 -0.002653 -73.497910 -13.392997 13.123834 -0.378448 -1.785715 21.604792 -5.887990 2.068503 -11.929958 4.754609 0.109182 -0.002672 85.149719 -15.630867 -8.950219 47.075504 7.626585 21.126186 4.687845 -12.284541 19.210562 -11.703596 14.377680 2.379590 63.468960 2.406007 -10.449393 -37.315441 -10.693347 8.545552 -13.798417 -25.924326 -17.662861 75.203514 11.035194 16.832916 2.386844 22.024563 13.852718 
